<svg width="40" height="40" viewBox="0 0 60 61" fill="none" xmlns="http://www.w3.org/2000/svg">
<path d="M50.625 42.2187C49.0669 42.2225 47.6288 42.7381 46.4719 43.6044L46.4906 43.5912L40.305 37.97C41.8425 35.9131 42.7669 33.3219 42.7669 30.5131C42.7669 27.4869 41.6944 24.7119 39.9075 22.5462L39.9244 22.5669L46.7569 15.7362C47.8519 16.4694 49.1981 16.9062 50.6456 16.9062C54.54 16.9062 57.6956 13.7506 57.6956 9.85624C57.6956 5.96187 54.54 2.80624 50.6456 2.80624C46.7513 2.80624 43.5956 5.96187 43.5956 9.85624C43.5956 11.3056 44.0325 12.6519 44.7825 13.7712L44.7656 13.745L37.935 20.5756C35.7881 18.8056 33.0094 17.7312 29.9775 17.7312C28.2206 17.7312 26.55 18.0912 25.0313 18.7437L25.1138 18.7119L23.1788 15.1981C24.6619 13.9081 25.5938 12.02 25.5938 9.91249C25.5938 6.04999 22.4625 2.92062 18.6019 2.92062C14.7413 2.92062 11.61 6.05187 11.61 9.91249C11.61 13.775 14.7413 16.9044 18.6019 16.9044C18.615 16.9044 18.63 16.9044 18.6431 16.9044C19.3894 16.8931 20.1 16.7675 20.7656 16.5406L20.7169 16.5556L22.6613 20.0862C19.3669 22.4169 17.2425 26.2081 17.235 30.4981V30.5C17.2538 31.8069 17.4694 33.0575 17.8538 34.2312L17.8294 34.1431L15.1613 35.2737C13.8844 33.4531 11.7956 32.2794 9.43126 32.2794C5.57626 32.2794 2.45251 35.4031 2.45251 39.2581C2.45251 43.1131 5.57626 46.2369 9.43126 46.2369C13.2863 46.2369 16.41 43.1131 16.41 39.2581C16.41 38.7631 16.3594 38.2812 16.2619 37.8162L16.2694 37.8612L18.93 36.7325C21.1181 40.6569 25.2431 43.2669 29.9775 43.2669C33.2213 43.2669 36.18 42.0406 38.415 40.0269L38.4038 40.0362L44.6081 45.6744C43.98 46.6944 43.605 47.9262 43.5975 49.2481C43.5975 53.1312 46.7456 56.2812 50.6288 56.2812C54.5119 56.2812 57.66 53.1331 57.66 49.25C57.66 45.3669 54.5119 42.2187 50.6288 42.2187H50.625ZM14.4188 9.87499C14.4188 7.54437 16.3069 5.65624 18.6375 5.65624C20.9681 5.65624 22.8563 7.54437 22.8563 9.87499C22.8563 12.2056 20.9681 14.0937 18.6375 14.0937C16.3088 14.09 14.4225 12.2037 14.4188 9.87499ZM9.37501 43.475C7.04626 43.4731 5.16001 41.5869 5.16001 39.2581C5.16001 36.9294 7.04814 35.0412 9.37689 35.0412C11.7056 35.0412 13.5919 36.9275 13.5938 39.2562C13.59 41.585 11.7038 43.4712 9.37501 43.475ZM50.625 5.65624C52.9556 5.65624 54.8438 7.54437 54.8438 9.87499C54.8438 12.2056 52.9556 14.0937 50.625 14.0937C48.2944 14.0937 46.4063 12.2056 46.4063 9.87499C46.41 7.54624 48.2963 5.65999 50.625 5.65624ZM20.0438 30.5C20.0438 30.5 20.0438 30.5 20.0438 30.4981C20.0438 25.0006 24.5006 20.5437 29.9981 20.5437C35.4956 20.5437 39.9525 25.0006 39.9525 30.4981C39.9525 35.9956 35.4956 40.4525 29.9981 40.4525C24.5025 40.4469 20.0513 35.9937 20.0438 30.5ZM50.625 53.4687C48.2944 53.4687 46.4063 51.5806 46.4063 49.25C46.4063 46.9194 48.2944 45.0312 50.625 45.0312C52.9556 45.0312 54.8438 46.9194 54.8438 49.25C54.84 51.5787 52.9538 53.465 50.625 53.4687Z" fill="#ccc4cf"/>
</svg>
