<svg width="404" height="442" viewBox="0 0 404 442" fill="none" xmlns="http://www.w3.org/2000/svg">
<path d="M255.379 206.55L167.03 235.399L90.1681 269.322L68.6649 274.999C63.1884 280.208 57.4462 285.484 51.2357 290.826C44.4243 296.702 38.0804 302.045 33.2047 305.918C27.7961 310.192 19.7825 318.205 15.7093 323.28C9.63209 330.892 4.8242 338.972 2.75391 345.184C-0.919223 356.403 0.884687 367.755 7.96304 378.24C17.0449 391.595 35.1423 405.217 56.2437 414.5C66.9958 419.242 85.0926 425.318 98.7151 428.723C121.352 434.467 165.16 440.678 189.267 441.613C194.141 441.813 200.686 441.813 200.952 441.613C201.487 441.278 205.227 434.133 209.568 425.252C224.393 395.001 235.077 366.62 240.887 342.379C244.359 327.689 247.097 308.122 248.899 284.951C249.367 278.473 249.567 256.77 249.166 249.423C248.565 237.404 247.496 227.654 245.828 218.105C245.561 216.702 245.493 215.433 245.627 215.367C245.894 215.166 246.695 214.899 257.58 211.76L255.377 206.552V206.551H255.379V206.55ZM235.212 218.371C236.013 218.371 238.149 238.871 238.683 251.827C238.817 254.565 238.749 256.368 238.616 256.368C238.083 256.368 227.331 250.025 219.652 245.217C212.974 241.009 200.287 232.595 198.283 230.992C197.614 230.525 197.681 230.459 203.158 228.588C212.439 225.449 234.477 218.371 235.212 218.371ZM190.202 233.196C190.804 233.196 192.339 234.063 196.012 236.334C209.768 244.948 228.467 255.366 236.48 258.839C238.95 259.908 239.217 259.506 233.542 263.38C221.388 271.661 206.228 279.807 187.663 288.021C184.392 289.49 181.654 290.625 181.588 290.625C181.455 290.625 181.854 288.957 182.388 286.953C186.862 270.324 189.4 253.496 189.535 240.007C189.601 233.328 189.601 233.328 190.202 233.129C190.068 233.196 190.135 233.196 190.202 233.196ZM180.92 236.735C181.32 237.135 181.053 252.094 180.519 256.167C179.317 265.917 177.447 274.999 174.376 285.217C173.642 287.686 172.973 289.757 172.841 289.89C172.572 290.224 163.423 281.276 160.419 277.803C155.209 271.793 151.137 265.783 148.132 259.907C146.596 256.901 144.192 251.026 144.392 250.825C145.46 250.09 180.653 236.468 180.92 236.735ZM137.246 253.897C137.313 253.897 137.379 253.897 137.447 253.963C137.58 254.097 138.048 255.166 138.449 256.367C140.585 262.177 145.393 270.725 149.534 276.201C154.075 282.211 160.019 288.621 164.959 292.828C166.563 294.164 168.031 295.432 168.231 295.633C168.632 296.034 168.766 295.967 157.88 300.108C145.26 304.915 131.503 309.723 115.743 314.798C111.978 316.012 108.217 317.236 104.459 318.471C103.857 318.672 104.058 318.338 105.794 315.6C113.607 303.379 125.493 279.406 132.171 262.444C133.307 259.506 134.442 256.568 134.643 255.9C134.91 254.965 135.243 254.631 136.111 254.163C136.578 254.031 137.046 253.897 137.246 253.897ZM123.892 259.439C124.092 259.573 120.686 266.718 117.347 273.262C110.869 285.883 103.791 298.305 94.3081 313.397C92.7056 316.001 91.1702 318.405 90.9694 318.672C90.6359 319.14 90.5016 319.006 89.4334 316.936C87.1629 312.462 85.2925 306.718 84.2911 301.443C83.289 296.234 83.4898 287.152 84.6255 281.543C85.4927 277.403 85.4268 277.47 87.4299 276.468C95.9775 272.128 123.624 259.172 123.892 259.439ZM239.085 264.114V266.919C239.085 281.811 237.482 302.245 235.144 317.137C234.743 319.741 234.408 321.877 234.343 321.945C234.343 321.945 232.406 321.411 230.136 320.742C220.119 317.604 209.234 312.996 199.417 307.588C192.939 304.048 183.524 298.238 183.791 297.97C183.857 297.904 186.662 296.435 189.934 294.699C203.024 287.888 215.577 280.542 226.463 273.263C230.536 270.525 236.679 266.118 238.016 264.916L239.085 264.114ZM73.4727 283.88C73.7397 283.88 73.6729 284.414 73.2723 286.818C73.005 288.555 72.6715 291.76 72.5388 293.963C72.0033 303.713 73.607 310.926 78.4149 320.808C79.7505 323.547 80.8196 325.817 80.7519 325.883C80.2841 326.284 36.0775 339.24 22.1866 343.046C18.0466 344.181 14.4412 345.183 14.1727 345.249C13.7062 345.383 13.639 345.317 13.8392 344.18C15.3749 334.365 22.8545 321.543 33.2716 310.724C40.2169 303.513 45.7598 299.306 55.2423 293.896C62.0537 290.023 72.5379 284.214 73.3391 283.946C73.3397 283.88 73.4062 283.88 73.4727 283.88ZM177.648 302.511C177.714 302.445 179.317 303.313 181.253 304.448C195.544 312.729 215.444 320.409 232.405 324.348L233.942 324.683L231.804 325.883C222.923 330.825 193.741 342.979 163.892 354.131C159.55 355.733 155.277 357.337 154.474 357.67C153.673 358.004 152.938 358.205 152.938 358.138C152.938 358.07 154.141 355.733 155.676 352.862C164.023 337.236 172.438 318.204 176.712 304.982C177.247 303.713 177.58 302.579 177.648 302.511ZM167.03 305.984C167.098 306.052 166.563 307.453 165.895 309.056C160.085 323.146 152.472 338.506 142.722 355.735C140.252 360.142 138.181 363.682 138.114 363.682C138.048 363.682 136.044 362.479 133.64 361.01C119.482 352.329 106.928 341.644 98.7154 331.293L97.5129 329.824L103.589 328.155C125.359 322.212 143.856 315.801 162.221 307.922C164.826 306.853 166.964 305.984 167.03 305.984ZM233.008 329.023C233.074 330.559 229.668 344.315 226.863 354.264C224.526 362.612 222.522 369.157 218.85 380.709C217.247 385.785 215.846 389.991 215.778 389.991C215.712 389.991 215.311 389.924 214.91 389.792C195.077 386.184 177.314 381.176 160.619 374.499C155.944 372.629 149.267 369.623 148.866 369.29C148.733 369.155 152.74 367.286 157.815 365.082C188.199 351.793 219.719 336.701 230.536 330.225C231.805 329.423 232.807 329.023 233.008 329.023ZM80.6854 334.232C80.819 334.365 72.338 346.586 60.4508 363.213C56.3108 369.023 51.5029 375.834 49.7003 378.372C47.8969 380.91 45.1593 384.917 43.6233 387.321L40.8174 391.661L37.8122 389.124C34.2727 386.185 28.1299 379.908 25.3919 376.436C19.6485 369.291 15.7762 361.745 14.2401 354.867C13.5054 351.661 13.5054 350.058 14.1724 349.859C15.1738 349.592 33.0039 345.384 49.6996 341.51C58.9819 339.374 69.7325 336.837 73.6058 335.902C77.4794 334.965 80.6188 334.232 80.6854 334.232ZM89.2326 337.504L91.3688 339.908C100.986 350.659 110.802 358.607 122.689 365.551C124.826 366.754 126.429 367.821 126.294 367.889C125.828 368.223 85.0252 382.712 66.1271 389.257C55.5099 392.996 46.7613 396.001 46.6954 396.001C46.6288 396.001 46.0274 395.601 45.3586 395.134L44.1573 394.265L46.0936 391.461C52.3704 382.379 60.2516 372.429 77.4135 351.728L89.2326 337.504ZM142.523 375.634C142.588 375.568 145.527 376.635 149.133 377.973C157.815 381.244 164.692 383.314 173.908 385.651C185.261 388.523 201.688 391.328 211.372 392.129C212.841 392.262 213.642 392.396 213.375 392.597C212.906 392.864 203.091 396.136 195.879 398.407C184.392 402.012 149.334 412.363 120.753 420.577C115.477 422.113 110.936 423.382 110.669 423.448C110.002 423.582 107.797 422.98 107.797 422.713C107.797 422.58 109.4 420.51 111.337 418.24C120.952 406.753 130.502 393.932 138.449 381.778C140.652 378.438 142.523 375.701 142.523 375.634ZM130.769 375.969C130.835 376.035 126.094 383.648 117.815 396.736C114.275 402.279 110.335 408.556 108.932 410.76C107.596 412.897 105.593 416.236 104.458 418.105L102.522 421.512L101.52 421.244C99.1154 420.576 82.2208 414.632 77.7464 412.83C72.2034 410.626 66.4606 407.955 62.1864 405.685C56.8448 402.813 50.1674 398.539 50.7011 398.406C50.8344 398.34 59.9834 395.868 71.0012 392.863C100.251 384.916 116.477 380.309 127.096 376.97C129.033 376.369 130.702 375.901 130.769 375.969ZM213.908 395.467H213.975C214.242 396.136 203.425 426.186 199.483 435.668C198.616 437.805 198.283 438.34 197.815 438.272C196.68 438.206 180.987 436.002 171.437 434.6C154.81 432.062 126.896 427.187 119.885 425.585L118.282 425.251L128.231 422.979C149.601 418.171 159.884 415.567 170.301 412.362C183.457 408.355 196.48 403.347 209.634 397.204C211.704 396.268 213.441 395.534 213.908 395.467Z" fill="url(#paint0_linear_4_13)"/>
<path d="M164.293 0.60425C162.823 0.405012 139.116 8.95255 123.824 15.1622C103.189 23.5773 87.1632 31.5912 77.2795 38.5347C73.6073 41.1402 68.9987 45.7473 68.2651 47.55C67.9981 48.2179 67.8639 49.0192 67.8639 49.8204L76.8127 58.3015L98.1146 65.1128L148.8 74.195L206.763 84.1452L207.365 79.1368C207.165 79.1368 207.031 79.0703 206.832 79.0703L199.217 77.8678L197.682 75.1302C189.802 61.2399 181.121 44.0108 176.046 32.3912C172.107 23.3759 168.367 12.9595 166.296 5.47989C165.161 0.938981 165.028 0.671997 164.294 0.605481V0.60394H164.293V0.60425ZM163.223 4.01101H163.291C163.357 4.07691 163.624 5.94797 163.892 8.15037C165.026 17.5007 167.098 26.5145 170.369 36.2645C172.84 43.6105 172.84 43.2102 169.969 42.3415C163.157 40.4723 132.64 35.1966 110.536 32.1249C106.997 31.6571 103.991 31.19 103.991 31.1234C103.724 30.8565 119.951 22.3748 127.096 19.0367C136.245 14.8287 161.354 4.34451 163.223 4.01101ZM98.8484 33.9276L101.454 34.7947C115.61 39.6035 151.202 46.4152 170.836 48.0177C173.039 48.2182 174.91 48.419 174.976 48.419C175.042 48.4855 173.174 49.4872 170.769 50.622C161.287 55.3634 150.869 61.1733 143.657 65.6477C141.521 66.9827 139.583 68.0518 139.317 68.0518C139.05 68.0518 137.648 67.7845 136.179 67.5841L133.508 67.1828L126.83 60.6381C115.077 49.2196 105.861 40.4051 102.322 37.0655L98.8484 33.9276ZM96.1782 35.9972L105.594 47.7508C110.735 54.2283 115.944 60.5719 117.08 61.9737C118.215 63.377 119.15 64.5127 119.084 64.5792C118.816 64.7793 105.461 62.1745 98.3819 60.5725C91.103 58.9026 88.0981 58.1013 83.6241 56.6996L79.9509 55.497V54.5615C80.0174 50.0871 85.6943 43.4097 95.3101 36.599L96.1782 35.9972ZM176.179 52.0244C176.446 52.0244 176.779 52.6252 177.581 54.4282C179.851 59.4362 186.931 72.9262 188.665 75.5302C189.201 76.3992 190.135 76.4657 180.72 74.9297C158.083 71.256 150.803 70.0553 150.803 69.9217C150.803 69.8551 151.471 69.3874 152.339 68.9196C159.351 65.0472 166.429 60.1051 172.707 54.8294C174.243 53.5604 175.645 52.3585 175.911 52.1577C175.978 52.0244 176.112 51.9579 176.179 52.0244Z" fill="url(#paint1_linear_4_13)"/>
<path d="M68.7311 46.6151C68.7311 46.6151 67.2628 48.9533 68.6649 52.4259C69.5339 54.5621 72.071 57.1661 74.942 59.8378C74.942 59.8378 104.658 88.8194 108.265 92.9603C124.692 111.925 131.837 130.623 132.505 156.4C132.906 172.961 129.766 187.519 121.954 204.414C108.064 234.732 78.7475 268.188 33.5386 305.317L40.1507 303.113C44.4243 299.907 50.2343 296.503 63.8567 289.023C95.3089 271.793 130.702 255.967 174.108 239.673C236.612 216.166 339.386 188.653 397.882 179.706L403.96 178.77L403.025 177.301C397.684 169.02 394.01 163.879 389.602 158.403C376.781 142.509 361.223 129.622 342.19 118.937C316.012 104.313 282.155 92.8938 239.284 84.4128C231.204 82.8093 213.44 79.7379 199.016 77.5343C168.431 72.7941 148.665 69.5213 126.895 65.7817C119.083 64.4455 107.396 62.4427 99.6494 60.7736C95.6427 59.9046 87.9639 58.1019 81.9538 56.0319C77.1459 54.1612 70.2003 52.2914 68.7311 46.6151ZM85.9611 63.3105C86.027 63.2446 87.0952 63.644 88.4985 64.1117C91.0359 64.9789 94.3078 65.9809 98.182 67.0501C101.113 67.8563 104.051 68.6353 106.997 69.3871C111.003 70.3882 114.342 71.3234 114.408 71.3234C114.876 71.7912 121.621 93.3591 123.892 101.64C124.759 104.779 125.428 107.45 125.361 107.45C125.292 107.518 124.559 106.382 123.691 104.846C115.878 91.0893 103.524 77.1327 89.2326 65.9135C87.3637 64.5792 85.9611 63.377 85.9611 63.3105ZM118.816 72.3923C119.15 72.3923 120.619 72.5928 122.421 72.9931C133.774 75.5305 154.142 79.4038 167.163 81.6078C169.367 81.9413 171.104 82.3428 171.104 82.4755C171.104 82.6098 170.302 83.0763 169.3 83.6112C167.097 84.746 158.215 90.021 155.277 92.0248C147.864 96.9664 141.187 102.309 136.379 107.116C134.442 109.053 132.772 110.656 132.772 110.656C132.772 110.656 132.373 109.521 132.037 108.118C129.635 98.8356 124.625 85.0789 120.084 75.3966C119.35 73.8612 118.748 72.4585 118.748 72.3255C118.748 72.4588 118.748 72.3923 118.816 72.3923ZM176.646 83.4107C177.047 83.5438 177.715 85.8145 179.05 90.8226C181.521 100.506 182.656 111.324 182.256 121.408C182.121 124.212 181.988 126.816 181.854 127.151L181.654 127.818L178.182 126.683C171.036 124.413 159.418 121.006 149.468 118.202C143.791 116.666 139.184 115.264 139.184 115.131C139.184 114.729 147.465 106.449 151.004 103.311C157.747 97.3667 176.045 83.21 176.646 83.4107ZM181.254 84.0778C181.454 83.8785 208.9 88.6187 221.388 91.0231C230.671 92.8258 244.16 95.6308 244.961 95.9652C245.361 96.0983 243.959 96.8995 239.484 98.9027C221.855 106.85 208.766 113.994 195.745 122.676C192.34 124.947 189.468 126.816 189.401 126.816C189.335 126.816 189.268 124.88 189.268 122.543C189.268 109.855 186.73 97.0335 182.055 86.2155C181.587 85.1469 181.187 84.1455 181.254 84.0778ZM252.239 98.102C252.44 98.3022 251.571 103.712 250.77 106.917C248.366 116.867 241.889 131.626 233.943 145.515C232.54 147.986 231.271 149.989 231.137 150.056C231.004 150.122 229.201 149.12 227.131 147.918C219.385 143.378 210.57 139.104 200.953 135.097C198.283 133.962 195.945 133.026 195.878 132.894C195.41 132.493 216.913 118.269 228.266 111.457C237.281 105.982 251.972 97.8344 252.239 98.102ZM257.314 98.903C257.915 98.903 270.069 102.242 276.412 104.112C292.106 108.787 310.136 115.398 321.889 120.74L326.763 122.944L323.358 123.745C294.644 130.356 270.069 137.969 246.362 147.585C244.426 148.386 242.689 149.054 242.557 149.054C242.423 149.054 243.091 147.519 243.959 145.648C251.104 130.49 255.712 114.663 256.846 101.173C256.914 99.9041 257.113 98.903 257.314 98.903ZM136.312 126.683C136.512 126.483 145.794 128.687 150.803 130.088C158.415 132.226 174.575 137.634 174.575 138.035C174.575 138.102 172.773 139.638 170.637 141.508C161.889 148.787 153.474 156.466 143.39 166.216C140.385 169.088 137.848 171.425 137.715 171.425C137.58 171.425 137.515 171.024 137.58 170.49C139.116 159.27 138.783 144.847 136.646 130.222C136.445 128.352 136.245 126.75 136.312 126.683ZM331.373 126.884C331.505 127.017 327.098 133.962 324.294 137.901C320.288 143.644 314.409 151.258 301.12 167.953C294.11 176.767 286.229 186.718 283.626 190.056C280.953 193.395 278.751 196.199 278.683 196.199C278.616 196.199 277.749 194.998 276.814 193.529C269.334 182.31 260.385 172.493 249.768 163.679C247.765 162.009 245.562 160.206 244.827 159.671C244.092 159.137 243.491 158.603 243.491 158.537C243.491 158.337 254.842 153.461 263.458 149.989C278.55 143.845 299.116 136.5 314.543 131.758C322.624 129.221 331.238 126.75 331.373 126.884ZM336.514 128.219C336.78 128.153 338.384 128.954 340.32 130.088C356.548 139.37 372.44 151.324 384.996 163.612C388.535 167.085 397.283 176.167 397.148 176.233C397.148 176.233 394.077 176.5 390.471 176.767C362.357 178.904 326.365 184.847 291.772 193.194C289.436 193.728 287.366 194.195 287.232 194.195C287.099 194.195 289.703 191.591 292.976 188.453C313.276 168.887 322.559 156.533 333.509 134.496C335.045 131.224 336.381 128.42 336.514 128.219C336.447 128.219 336.447 128.219 336.514 128.219ZM187.798 143.445C188.733 143.644 197.414 147.719 203.959 150.991C209.969 153.995 218.984 158.804 219.451 159.204C219.518 159.27 216.312 160.94 212.374 162.877C199.818 169.154 189.067 175.097 177.848 181.908C174.643 183.845 171.972 185.449 171.905 185.449C171.638 185.449 171.704 185.18 173.508 181.908C179.518 170.958 184.325 157.869 187.064 145.114C187.33 144.112 187.598 143.445 187.798 143.445ZM179.116 145.047C179.317 145.248 177.047 153.461 175.645 157.935C172.906 166.416 168.299 177.034 163.825 185.048C162.755 186.916 161.153 189.655 160.285 191.19L158.616 193.862L154.876 190.256C150.536 186.049 146.996 183.445 142.456 181.107C140.652 180.173 139.25 179.371 139.25 179.238C139.25 178.704 150.669 168.353 159.417 160.874C165.694 155.465 178.916 144.847 179.116 145.047ZM232.207 166.884L235.479 169.02C242.957 173.896 251.771 180.373 258.517 186.049C262.322 189.187 269.668 195.799 271.138 197.402L271.938 198.271L266.53 199.806C235.945 208.286 212.306 215.832 184.726 225.983C181.654 227.118 179.05 228.053 178.849 228.053C178.45 228.053 178.115 228.386 184.994 222.042C202.624 205.816 218.249 187.919 229.869 170.489L232.207 166.884ZM218.25 170.357C218.383 170.49 209.234 183.378 203.758 190.657C197.214 199.338 185.594 213.896 177.581 223.377C174.242 227.318 171.372 230.59 171.237 230.657C171.036 230.724 170.97 229.722 170.97 228.186C170.97 220.105 168.9 211.491 165.294 204.146C163.758 201.074 163.49 200.339 163.825 200.006C165.094 198.87 184.526 187.785 196.813 181.174C205.094 176.767 218.048 170.223 218.25 170.357ZM133.84 191.058C134.041 191.058 135.577 191.859 137.314 192.794C141.587 195.131 145.394 197.735 148.799 200.541C148.932 200.674 147.197 202.077 144.926 203.745C138.582 208.286 128.966 215.566 123.358 220.04C117.48 224.715 117.281 224.848 117.948 223.846C122.356 217.102 124.558 213.295 126.897 208.421C128.966 204.081 131.036 198.938 132.505 194.464C133.039 192.527 133.707 191.058 133.84 191.058ZM156.346 208.687C156.679 208.621 157.081 209.221 158.883 211.893C162.689 217.568 165.627 225.182 166.363 231.325L166.495 232.662L157.348 236.201C140.986 242.544 125.895 248.822 115.677 253.496C112.806 254.832 107.797 257.235 104.526 258.839C101.253 260.508 98.582 261.777 98.582 261.71C98.582 261.644 100.652 260.107 103.189 258.237C123.157 243.747 140.452 227.853 153.407 211.96C154.81 210.29 156.079 208.754 156.212 208.687L156.346 208.687ZM145.995 211.225C146.263 211.492 138.65 220.106 133.441 225.382C120.553 238.538 107.798 248.822 91.9708 258.839C89.9677 260.107 88.165 261.242 87.9642 261.377C87.4965 261.644 88.0973 260.975 95.0426 253.429C99.4505 248.688 102.789 244.681 106.595 239.74C109.133 236.469 109.601 236.001 113.274 233.395C123.091 226.317 145.728 210.958 145.995 211.225Z" fill="url(#paint2_radial_4_13)"/>
<defs>
<linearGradient id="paint0_linear_4_13" x1="67.3666" y1="398.123" x2="99.3133" y2="379.247" gradientUnits="userSpaceOnUse">
<stop stop-color="#909CA9"/>
<stop offset="1" stop-color="#EDEDEE"/>
</linearGradient>
<linearGradient id="paint1_linear_4_13" x1="68.0982" y1="42.2441" x2="93.8033" y2="42.2441" gradientUnits="userSpaceOnUse">
<stop stop-color="#939FAB"/>
<stop offset="1" stop-color="#DCDEE1"/>
</linearGradient>
<radialGradient id="paint2_radial_4_13" cx="0" cy="0" r="1" gradientUnits="userSpaceOnUse" gradientTransform="translate(197.807 160.136) rotate(-171.457) scale(33.1411 66.2986)">
<stop stop-color="#EE352C"/>
<stop offset="1" stop-color="#A91D22"/>
</radialGradient>
</defs>
</svg>
