<svg width="64" height="64" viewBox="0 0 64 64" fill="none" xmlns="http://www.w3.org/2000/svg">
<g clip-path="url(#clip0_4_8)">
<path d="M43.7818 1.38458C41.0284 -1.0563 37.6991 -0.0799486 34.4088 2.82959L32.9442 4.25506C27.3204 10.2108 22.2043 21.2631 20.4859 29.7086C21.0982 31.0462 21.582 32.4388 21.9309 33.8679L22.1457 34.8442L22.3605 35.8401C22.3605 35.8401 22.3117 35.6448 22.1067 35.059L21.97 34.6685C21.9426 34.5961 21.9133 34.5245 21.8821 34.4537C21.5111 33.6043 20.5152 31.798 20.0563 31.0169C19.7011 32.0551 19.3659 33.1 19.0507 34.151C20.3395 36.5138 21.1206 40.5559 21.1206 40.5559C21.1206 40.5559 21.0522 40.2923 20.73 39.3843C20.4371 38.5739 19.0116 36.0647 18.6797 35.4789C18.0939 37.6268 17.8693 39.0718 18.0743 39.4233C18.4649 40.1068 18.8554 41.376 19.1972 42.5867C19.7244 44.7337 20.1545 46.9034 20.4859 49.0892L20.5348 49.6946C20.4336 52.1362 20.4825 54.5817 20.6812 57.0172C20.9351 60.0732 21.4135 62.6996 22.0188 64.1056L22.4289 63.881C21.5502 61.1082 21.1792 57.4859 21.3354 53.2973C21.5795 46.9022 23.044 39.189 25.768 31.1536C30.3862 18.9199 36.752 9.17589 42.5906 4.52844C37.2695 9.3321 30.0737 24.8757 27.9258 30.6264C25.5142 37.0703 23.8055 43.1237 22.7706 48.9135C24.5476 43.485 30.2885 41.1417 30.2885 41.1417C30.2885 41.1417 33.12 37.6659 36.4005 32.6963L30.103 34.3756L28.0722 35.2738C28.0722 35.2738 33.2469 32.1202 37.7088 30.685C43.8306 21.0483 50.4991 7.3501 43.7818 1.37482" fill="#003B57"/>
</g>
<defs>
<clipPath id="clip0_4_8">
<rect width="64" height="64" fill="white"/>
</clipPath>
</defs>
</svg>
